<svg xmlns="http://www.w3.org/2000/svg" width="800" height="800" version="1.0" viewBox="0 0 600 600"><path d="M290 39.4c-6.7 1.2-17.5 6.2-27.5 12.6-1.6 1.1-3.7 2.3-4.5 2.7s-4.6 2.6-8.5 4.8c-3.8 2.3-7.7 4.4-8.5 4.8s-2.8 1.6-4.5 2.7c-1.6 1.1-3.7 2.3-4.5 2.7s-5.8 3.2-11 6.3-10.2 5.9-11 6.3-2.8 1.6-4.5 2.6c-1.6 1.1-5.2 3.2-8 4.7-8.9 4.9-10 5.5-13 7.4-1.6 1.1-3.9 2.4-5 3s-3.6 2-5.5 3.1c-1.9 1.2-5.5 3.2-8 4.6-2.5 1.3-5.8 3.3-7.5 4.4-1.6 1-3.7 2.2-4.5 2.6s-5.8 3.2-11 6.3-10.2 5.9-11 6.3-2.8 1.6-4.5 2.7c-1.6 1.1-3.7 2.3-4.5 2.7s-4.6 2.5-8.5 4.8c-3.8 2.2-7.7 4.4-8.5 4.8s-2.8 1.6-4.5 2.7c-1.6 1-4.9 2.9-7.1 4.1-8.7 4.5-11.7 9.3-9.4 14.9 1 2.5 6.8 8 8.4 8 .2 0 4.9 2.6 10.3 5.8s10.5 6.1 11.3 6.5 2.9 1.6 4.5 2.7c1.7 1.1 3.7 2.3 4.5 2.7s4.7 2.5 8.5 4.8c3.9 2.2 7.7 4.4 8.5 4.8s2.9 1.6 4.5 2.7c1.7 1.1 3.7 2.3 4.5 2.7s4.7 2.6 8.5 4.8c3.9 2.3 7.7 4.4 8.5 4.8s2.9 1.6 4.5 2.7c1.7 1.1 3.7 2.3 4.5 2.7s4.7 2.5 8.5 4.8c3.9 2.2 7.7 4.4 8.5 4.8s2.9 1.6 4.5 2.7c1.7 1.1 3.7 2.3 4.5 2.7s4.7 2.5 8.5 4.8c3.9 2.2 7.7 4.4 8.5 4.8s2.9 1.6 4.5 2.7c1.7 1.1 3.7 2.3 4.5 2.7s4.7 2.6 8.5 4.8c3.9 2.3 7.7 4.4 8.5 4.8s2.9 1.6 4.5 2.7c1.7 1.1 3.9 2.4 5 3s4.7 2.6 8 4.5 6.9 4 8 4.5c1.1.6 3.4 1.9 5 3 7.8 5 18.2 9 23.5 9s15.7-4 23.5-9c1.7-1.1 3.7-2.3 4.5-2.7s4.7-2.6 8.5-4.8c3.9-2.3 7.7-4.4 8.5-4.8s2.9-1.6 4.5-2.7c1.7-1.1 3.7-2.3 4.5-2.7s4.7-2.5 8.5-4.8c3.9-2.2 7.7-4.4 8.5-4.8s2.9-1.6 4.5-2.7c1.7-1.1 3.7-2.3 4.5-2.7s4.7-2.6 8.5-4.8c3.9-2.3 7.7-4.4 8.5-4.8s2.9-1.6 4.5-2.7c1.7-1.1 3.7-2.3 4.5-2.7s5.8-3.2 11-6.3 10.2-5.9 11-6.3 2.9-1.6 4.5-2.6c1.7-1.1 5-3.1 7.5-4.4 2.5-1.4 6.1-3.4 8-4.6 1.9-1.1 4.4-2.5 5.5-3.1s3.4-1.9 5-2.9c1.7-1.1 5.3-3.2 8-4.7 8.9-4.9 10-5.5 13-7.4 1.7-1.1 3.7-2.3 4.5-2.7s5.9-3.3 11.3-6.5 10.1-5.8 10.3-5.8c1.6 0 7.4-5.5 8.4-8 2.2-5.4-1-10.5-9.5-15-2.2-1.2-5.3-3-7-4-1.6-1.1-3.7-2.3-4.5-2.7s-4.6-2.6-8.5-4.8c-3.8-2.3-7.7-4.4-8.5-4.8s-2.8-1.6-4.5-2.7c-1.6-1.1-3.7-2.3-4.5-2.7s-4.6-2.6-8.5-4.8c-3.8-2.3-7.7-4.4-8.5-4.8s-2.8-1.6-4.5-2.7c-1.6-1.1-3.9-2.4-5-3s-3.6-2-5.5-3.1c-1.9-1.2-5.5-3.2-8-4.6-2.5-1.3-5.8-3.3-7.5-4.4-1.6-1-3.7-2.2-4.5-2.6s-4.6-2.6-8.5-4.8c-3.8-2.3-7.7-4.4-8.5-4.8s-2.8-1.6-4.5-2.7c-1.6-1.1-3.7-2.3-4.5-2.7s-5.8-3.2-11-6.3-10.2-5.9-11-6.3-2.8-1.6-4.5-2.7c-1.6-1.1-3.7-2.3-4.5-2.7s-4.6-2.5-8.5-4.8c-3.8-2.2-7.7-4.4-8.5-4.8s-2.8-1.6-4.5-2.7c-10.3-6.6-20.8-11.4-28-12.6-8.3-1.5-9.1-1.5-17.5 0M68.2 187.3l-3.2 3.3v112.1c0 100.3.2 112.6 1.6 117.4 4.7 15.7 11.9 24.1 28.2 33 2 1.1 5.1 2.9 6.7 4 1.7 1 3.7 2.2 4.5 2.6s4.7 2.5 8.5 4.8c3.9 2.2 7.7 4.4 8.5 4.8s2.9 1.6 4.5 2.7c1.7 1.1 3.7 2.3 4.5 2.7s4.7 2.6 8.5 4.8c3.9 2.3 7.7 4.4 8.5 4.8s2.9 1.6 4.5 2.7c1.7 1.1 3.7 2.3 4.5 2.7s4.7 2.5 8.5 4.8c3.9 2.2 7.7 4.4 8.5 4.8s2.9 1.6 4.5 2.7c1.7 1.1 3.7 2.3 4.5 2.7s4.7 2.5 8.5 4.8c3.9 2.2 7.7 4.4 8.5 4.8s2.9 1.6 4.5 2.7c1.7 1.1 3.7 2.3 4.5 2.7s4.7 2.6 8.5 4.8c3.9 2.3 7.7 4.4 8.5 4.8s2.9 1.6 4.5 2.7c1.7 1.1 3.9 2.4 5 3s3.6 2 5.5 3.1c1.9 1.2 5.5 3.2 8 4.6 2.5 1.3 5.9 3.3 7.5 4.3 1.7 1 4.1 2.5 5.5 3.3 18.3 10.2 18.3 10.2 23.9 4.6l3.1-3.1V435.5c0-124.4.2-117.8-4.7-127-2-3.8-7.2-9.4-9.8-10.6-1.1-.5-3.3-1.8-5-2.9-1.6-1.1-3.9-2.4-5-3-1.1-.5-2.7-1.4-3.5-2-2.2-1.4-16.3-9.5-18-10.3-.8-.4-2.8-1.6-4.5-2.7-1.6-1.1-3.7-2.3-4.5-2.7s-4.6-2.6-8.5-4.8c-3.8-2.3-7.7-4.4-8.5-4.8s-2.8-1.6-4.5-2.7c-1.6-1.1-3.7-2.3-4.5-2.7s-4.6-2.5-8.5-4.8c-3.8-2.2-7.7-4.4-8.5-4.8s-2.8-1.6-4.5-2.7c-1.6-1.1-3.7-2.3-4.5-2.7s-4.6-2.5-8.5-4.8c-3.8-2.2-7.7-4.4-8.5-4.8s-2.8-1.6-4.5-2.7c-1.6-1.1-3.7-2.3-4.5-2.7s-4.6-2.6-8.5-4.8c-3.8-2.3-7.7-4.4-8.5-4.8s-2.8-1.6-4.5-2.7c-1.6-1.1-3.7-2.3-4.5-2.7-1.8-.8-15.8-8.9-18-10.3-.8-.6-2.4-1.5-3.5-2-1.1-.6-3.3-1.9-5-2.9-1.6-1.1-5-3.1-7.5-4.4-2.5-1.4-6.1-3.4-8-4.6-1.9-1.1-4.5-2.5-5.7-3-1.1-.5-2.4-1.5-2.8-2-.3-.6-2.5-1.1-4.9-1.1-3.5 0-4.8.6-7.4 3.3M517.5 185.1c-.4.5-1.7 1.4-2.8 2-1.2.5-4.9 2.5-8.2 4.4s-6.9 4-8 4.5c-1.1.6-3.3 1.9-5 3-1.6 1.1-3.7 2.3-4.5 2.7s-4.6 2.6-8.5 4.8c-3.8 2.3-7.7 4.4-8.5 4.8s-2.8 1.6-4.5 2.7c-1.6 1.1-3.7 2.3-4.5 2.7s-5.8 3.2-11 6.3-10.2 5.9-11 6.3-2.8 1.6-4.5 2.7c-1.6 1.1-3.7 2.3-4.5 2.7s-4.6 2.5-8.5 4.8c-3.8 2.2-7.7 4.4-8.5 4.8s-2.8 1.6-4.5 2.7c-1.6 1.1-3.7 2.3-4.5 2.7s-4.6 2.5-8.5 4.8c-3.8 2.2-7.7 4.4-8.5 4.8s-2.8 1.6-4.5 2.7c-1.6 1.1-3.7 2.3-4.5 2.7s-4.6 2.5-8.5 4.8c-3.8 2.2-7.7 4.4-8.5 4.8s-2.8 1.6-4.5 2.7c-1.6 1.1-3.7 2.3-4.5 2.7s-4.6 2.6-8.5 4.8c-3.8 2.3-7.7 4.4-8.5 4.8s-2.8 1.6-4.5 2.7c-1.6 1-4.9 2.9-7.2 4.1-5.6 2.9-10.6 8.2-14 14.9l-2.8 5.5-.3 117.7-.2 117.6 3.1 3.1c5.6 5.6 5.5 5.6 23.9-4.6 1.4-.8 3.9-2.3 5.5-3.3 1.7-1.1 3.7-2.3 4.5-2.7s4.7-2.6 8.5-4.8c3.9-2.3 7.7-4.4 8.5-4.8s2.9-1.6 4.5-2.7c1.7-1.1 3.7-2.3 4.5-2.7s4.7-2.5 8.5-4.8c3.9-2.2 7.7-4.4 8.5-4.8s2.9-1.6 4.5-2.7c1.7-1.1 3.7-2.3 4.5-2.7s4.7-2.6 8.5-4.8c3.9-2.3 7.7-4.4 8.5-4.8s2.9-1.6 4.5-2.7c1.7-1.1 3.7-2.3 4.5-2.7s4.7-2.6 8.5-4.8c3.9-2.3 7.7-4.4 8.5-4.8s2.9-1.6 4.5-2.7c1.7-1.1 3.9-2.4 5-3s3.6-2 5.5-3.1c1.9-1.2 5.5-3.2 8-4.6 2.5-1.3 5.9-3.3 7.5-4.4 1.7-1 3.7-2.2 4.5-2.6s4.7-2.6 8.5-4.8c3.9-2.3 7.7-4.4 8.5-4.8s2.9-1.6 4.5-2.7c1.7-1.1 3.9-2.4 5-2.9s3.7-2.1 5.8-3.5 4.2-2.6 4.6-2.6c1.7 0 10.9-9.8 13.7-14.6 1.5-2.6 3.8-7.9 5.1-11.8l2.3-7V191.1l-3.1-3.6c-2.7-3-3.7-3.5-7.4-3.5-2.4 0-4.7.5-5 1.1"/></svg>