<svg xmlns="http://www.w3.org/2000/svg" width="400" height="400"><path fill="#38ABC7" d="m198.063 16.688 3.235.004c57.953.145 57.953.145 70.874 11.296 6.595 7.257 11.41 15.505 15.344 24.453 1.354 2.71 1.354 2.71 3.968 4.461 3.844 3.205 5.23 6.634 5.792 11.484.127 2.67.133 5.316.099 7.989l.035 2.71c-.043 9.981-2.468 16.701-9.336 23.962-2.545 2.396-5.048 4.213-8.074 5.953l.219 2.203c.673 7.29.898 14.48.781 21.797l5 2q.149 7.284.22 14.57.03 2.474.082 4.948c.049 2.381.071 4.761.089 7.142l.062 2.21c.003 5.456-1.44 8.587-4.453 13.13l8 1 .818-2.636c1.141-3.248 2.493-6.141 4.088-9.188l1.74-3.34 1.854-3.524 1.903-3.638q1.902-3.638 3.812-7.274 2.353-4.484 4.687-8.978 2.984-5.731 6.033-11.428 1.05-1.965 2.084-3.937a378 378 0 0 1 2.793-5.182l1.52-2.82C323 114 323 114 325.512 113.07 328 113 328 113 331 115c.702 5.013-.763 8.2-3.078 12.594l-.979 1.88a754 754 0 0 1-3.193 6.026q-1.098 2.088-2.192 4.176c-5.258 10-10.638 19.934-16.105 29.82q-1.23 2.25-2.453 4.504l-1.213 2.223-1.115 2.117-.982 1.843c-.807 2.124-.804 3.682-.69 5.942 0 4.63-.976 6.43-4 9.875q-1.993.53-4 1c-1.537 2.174-1.537 2.174-2 5l.86 2.484c2.745 8.463 3.184 17.702 4.14 26.516l.262 2.21c.55 4.981.923 8.97-1.88 13.274-3.452 3.674-6.624 5.824-11.382 7.516l-.34 3.512c-.548 4.338-1.68 8.22-3.223 12.3l-.782 2.09c-2.56 6.467-6.282 11.71-10.655 17.098l-2 3 1.426 1.137c7.986 6.564 7.986 6.564 8.922 11.812.152 2.113.152 2.113-.348 6.051-2.958 3.296-5.61 4.64-10 5-2.027-1.223-2.027-1.223-3.937-3.062l-2.06-1.946L256 309l-1.848-1.805A323 323 0 0 1 250 303l-3.5 1.188q-2.75.909-5.5 1.812l-3.738 1.242q-2.037.661-4.075 1.32l-1.898.636c-11.084 3.545-22.215 4.206-33.789 4.177l-2.115.001c-13.303-.025-26.228-1.17-38.72-6.017-4-1.483-5.655-1.667-9.665-.359-2.833 1.663-5.386 3.507-7.945 5.563-7.27 5.75-7.27 5.75-12.055 5.437-4.165-2.515-5.573-3.787-7.187-8.375.25-4.833 1.847-7.22 5.187-10.625 2.26-1.85 4.54-3.408 7-5l-1.137-1.469c-7.76-10.165-13.081-19.375-15.175-32.156-1.25-6.892-3.426-10.815-8.688-15.375-1.695-1.695-1.213-3.73-1.25-6.062.044-9.904 1.61-19.694 2.975-29.487.6-4.549.6-4.549-1.225-8.576L106 199v-2l-2.25-.125C101 196 101 196 98.625 193.438 97 190 97 190 97.707 186.504c.896-6.006-2.044-10.744-4.644-16.004l-1.537-3.226a848 848 0 0 0-9.59-19.364c-3.25-6.404-6.157-12.958-9.056-19.526l-1.095-2.474-.972-2.214c-.693-1.687-.693-1.687-1.813-2.696-.25-2.937-.25-2.937 0-6 3-2 3-2 5.375-2.125 7.12 3.051 10.6 15.228 13.625 21.875l1.68 3.657a5234 5234 0 0 1 3.509 7.648c2.727 5.949 5.49 11.881 8.25 17.815l4.174 8.99 1.4 3.014L108 178h9v-4l-1.812-.75c-2.739-1.565-3.645-2.46-5.188-5.25-.527-3.303-.607-6.597-.687-9.937l-.093-2.84q-.087-2.811-.153-5.624c-.058-2.258-.151-4.51-.262-6.767l-.118-3.457-.113-2.977L109 134l2.002-1.317c2.237-1.523 2.237-1.523 2.452-4.135l-.063-2.872-.04-3.115-.101-3.249-.055-3.283A612 612 0 0 0 113 108l-2-1v-2l-1.687-.687C103.09 100.78 100.163 95.598 98 89c-1.29-5.89-.859-11.085 0-17l-.187-3.562c.282-5.172 2.481-8.404 5.812-12.376C105 55 105 55 107 55l.75-2.61c3.819-10.358 13.128-22.112 22.578-27.788 20.323-8.95 46.01-7.99 67.735-7.914M119 42a130 130 0 0 0-3 4l1 2 2.625-1.5c7.484-3.173 16.59-2.536 24.063.313 3.031 1.33 5.092 2.727 7.312 5.187l1.52-.516c5.94-1.902 11.946-3.313 18.042-4.609l2.396-.517c22.3-4.645 46.52-3.902 68.042 3.642l3 1c2.02-1.302 4.018-2.64 6-4 8.179-3.332 18.081-3.299 26.438-.5L280 48c-4.048-8.059-8.193-15.851-16.937-19.312-20.623-6.37-42.533-7.045-63.932-7.004-3.429.003-6.857-.02-10.285-.045C162.969 21.565 137.494 21.99 119 42m-4 150 1 2Z"/><path fill="#ED9326" d="M74.375 112.875c7.12 3.051 10.6 15.228 13.625 21.875l1.68 3.657a5234 5234 0 0 1 3.509 7.648c2.727 5.949 5.49 11.881 8.25 17.815l4.174 8.99 1.4 3.014L108 178h9v-4l-1.812-.75c-2.739-1.565-3.645-2.46-5.188-5.25-.527-3.303-.606-6.597-.687-9.937l-.102-2.833c-.235-7.076-.33-14.15-.211-21.23l5-2v5l3.875.188c4.855.486 9.394 1.635 14.063 3 7.831 2.284 15.716 4.138 23.687 5.875 15.477 3.38 15.477 3.38 22.5 5.125l3.445.855c4.197 1.171 8.31 2.543 12.43 3.957 3.542 21.27 7.995 52.016 1 73a385 385 0 0 0-1.074 9.844c-.847 7.63-3.07 12.9-8.926 18.156l-2 2c-8.312 3.063-16.714 3.475-25.49 3.391-2.008-.016-4.014 0-6.022.02-11.17-.034-20.978-1.685-30.925-6.849l-3.434-1.746c-4.446-2.58-8.501-5.306-11.129-9.816-1.848-11.088 1.193-23.558 2.725-34.55.6-4.548.6-4.548-1.225-8.575L106 199v-2l-2.25-.125C101 196 101 196 98.625 193.438 97 190 97 190 97.707 186.504c.896-6.006-2.044-10.744-4.644-16.004l-1.537-3.226a848 848 0 0 0-9.59-19.364c-3.25-6.404-6.157-12.958-9.056-19.526l-1.095-2.474-.972-2.214c-.693-1.687-.693-1.687-1.813-2.696-.25-2.937-.25-2.937 0-6 3-2 3-2 5.375-2.125M115 192l1 2Z"/><path fill="#EE9325" d="M330 114c1 1 1 1 1.255 3.65-.304 3.993-1.47 6.406-3.333 9.944l-.979 1.88a754 754 0 0 1-3.193 6.026q-1.098 2.088-2.192 4.176c-5.258 10-10.638 19.934-16.105 29.82q-1.23 2.25-2.453 4.504l-1.213 2.223-1.115 2.117-.982 1.843c-.807 2.124-.804 3.682-.69 5.942 0 4.63-.976 6.43-4 9.875-2.062.625-2.062.625-4 1-.425.626-.85 1.253-1.29 1.898-7.413 9.107-32.11 9.7-43.267 10.902-4.17.341-8.328.322-12.51.298l-2.786-.005a3495 3495 0 0 1-8.71-.03q-2.973-.008-5.947-.014-7.245-.017-14.49-.049c-.62-37.865-.62-37.865 3-54 15.92-4.924 31.97-9.046 48.178-12.89l6.81-1.62c4.719-1.136 9.354-2.43 13.956-3.983 2.405-.593 4.588-.592 7.056-.507v-4l5 2q.149 7.284.22 14.57.03 2.474.082 4.948c.049 2.381.071 4.761.089 7.142l.062 2.21c.003 5.456-1.44 8.587-4.453 13.13l8 1 .818-2.636c1.141-3.248 2.493-6.141 4.088-9.188l1.74-3.34 1.854-3.524 1.903-3.638q1.902-3.638 3.812-7.274 2.353-4.484 4.687-8.978c14.165-27.2 14.165-27.2 21.098-25.422"/><path fill="#595858" d="m198.063 16.688 3.235.004c57.953.145 57.953.145 70.874 11.296 6.595 7.257 11.41 15.505 15.344 24.453 1.354 2.71 1.354 2.71 3.968 4.461 3.844 3.205 5.23 6.634 5.792 11.484.127 2.67.133 5.316.099 7.989l.035 2.71c-.043 9.969-2.448 16.744-9.363 23.962-3.68 3.511-6.503 5.588-11.485 6.766-5.533-1.263-7.601-5.203-10.562-9.813l-1.645-2.348c-1.706-3.34-1.951-6.175-2.293-9.902-.667-6.231-2.18-11.21-5.062-16.75l-1-3c-2.376-1.184-2.376-1.184-5-2-3-1-3-1-4.168-3.11l-1.02-2.64-1.042-2.61c-.802-2.75-1.112-4.796-.77-7.64 8.038-6.699 16.983-6.738 27-6 2.964.727 5.247 1.652 8 3q-2.114-3.164-4.25-6.312l-1.2-1.803c-6.106-8.96-13.7-10.409-23.925-12.447-16.8-3.005-33.442-3.786-50.494-3.754-3.429.003-6.857-.02-10.285-.045-35.069-.357-35.069-.357-65.033 15.299-2.758 2.82-5.034 5.504-6.813 9.062l2.625-1.5c7.5-3.18 16.599-2.547 24.063.375 2.661 1.208 4.865 2.493 7.312 4.125-.482 5.495-1.01 10.235-4 15-2.246 1.01-4.474 1.635-6.848 2.285C136.79 68.402 135.7 69.93 134 73c-2.383 5.671-3.064 10.746-3.125 16.875-.381 7.4-2.992 11.299-7.355 16.992C121 109 121 109 117.848 109.383c-2.742-.369-4.509-.943-6.848-2.383v-2l-1.687-.687C103.09 100.78 100.163 95.598 98 89c-1.29-5.89-.859-11.085 0-17l-.187-3.562c.282-5.172 2.481-8.404 5.812-12.376C105 55 105 55 107 55l.75-2.61c3.819-10.358 13.128-22.112 22.578-27.788 20.323-8.95 46.01-7.99 67.735-7.914"/><path fill="#E4E4E3" d="M287 201.063c2 .937 2 .937 3.023 3.304 2.33 8.663 3.012 17.734 3.977 26.633l.262 2.21c.526 4.768.842 8.831-1.563 13.099-8.696 9.85-23.659 15.011-36.468 15.974-3.388.098-6.76.14-10.149.108-2.08-.016-4.158 0-6.238.02-9.222.013-18.765-.343-26.844-5.224-6.54-7.152-8.125-14.599-9.062-23.937-.551-5.704-.551-5.704-1.938-11.25a140 140 0 0 1-.062-6.187l.027-3.293L202 210l3.522-.044c29.906-.08 29.906-.08 59.478-3.956l2.544-.514c5.93-1.213 13.662-4.605 19.456-4.423"/><path fill="#FDFEFE" d="M238 59.313c3.026 1.164 5.675 2.362 8 4.687v2h3c4.043 7.009 3.879 16.17 3 24-2.39 6.77-7.417 10.883-13.754 13.96-11.249 3.602-22.882 1.183-33.246-3.96l-1-2-2.125.035c-4.538.043-8.793.058-13.25-.847-3.729-.605-3.729-.605-6.25 2L180 102c-8.43 6.147-15.814 6.877-26 6-6.689-1.872-11.193-6.289-15-12-1.964-.577-1.964-.577-4.125-.687L131 95l.96-1.738 1.415-2.575 1.656-2.992c1.521-2.8 2.927-5.645 4.313-8.515l1.264-2.554a243 243 0 0 0 2.436-5.074c2.484-4.958 4.69-7.804 9.886-9.95 3.243-.944 6.202-1.093 9.57-1.04l3.719.004C170 61 170 61 173.516 62.492c5.674 2.296 11.631 2.066 17.673 2.064 2.044.006 4.084.061 6.127.118 8.115.101 14.007-1.084 21.008-5.326 6.181-3.114 13.258-1.99 19.676-.035"/><path fill="#E4E3E2" d="M111 202c8.825.58 17.172 2.199 25.775 4.184 13.852 3.054 27.978 3.032 42.1 3.379l5.012.13q6.056.159 12.113.307.04 3.906.063 7.813l.025 2.236c.015 3.25-.053 5.845-1.088 8.951a385 385 0 0 0-1.074 9.844c-.847 7.63-3.07 12.9-8.926 18.156l-2 2c-8.312 3.063-16.714 3.475-25.49 3.391-2.008-.016-4.014 0-6.022.02-11.17-.034-20.978-1.685-30.925-6.849l-3.434-1.746c-4.446-2.58-8.501-5.306-11.129-9.816-1.374-8.246.383-17.282 1.375-25.5l.381-3.185c.13-1 .26-2.002.392-3.034l.35-2.717c.53-2.704 1.402-5.043 2.502-7.564"/><path fill="#AEDCE8" d="M244 51c1.168 2.496 1.168 2.496 2.188 5.438l1.042 2.933C248 62 248 62 248 65l2.188.188c3.86 1.115 5.278 2.693 7.812 5.812 5.96 11.004 6.736 22.962 3.313 35-1.538 4.96-3.358 8.557-7.313 12-3.575.645-6.962.338-10.562 0l-2.97-.209c-6.89-.525-13.71-1.323-20.468-2.791l.598 2.324c.402 2.676.402 2.676-1.16 5.489-3.053 2.739-4.469 2.378-8.438 2.187l.14 2.52.11 3.293.14 3.269C211 137 211 137 209.146 138.938 207 140 207 140 204.437 139.188L202 138c-3.185-.277-3.185-.277-6 2-2.5-.062-2.5-.062-5-1-3.421-3.775-3.271-7.373-3.105-12.207L188 125l-2.312.188C183 125 183 125 181.188 124c-1.912-3.22-1.938-6.429-1.188-10 2.25-3 2.25-3 5-5 4 0 4 0 5.688 1.5 3.608 2.34 7.13 2.047 11.312 1.5 2.516-.799 4.637-1.793 7-3 .21-4.14.21-4.14-1-8l1.844.656c10.134 3.22 21.528 4.705 31.344-.156 4.7-3.059 8.177-6.02 9.812-11.5.897-8.168.046-16.07-2-24h-3v-2c-8.11-4.164-15.816-6.355-25-5-2.723 1.328-2.723 1.328-5.402 3-6.717 3.498-12.895 3.824-20.308 3.617-2.053-.055-4.1-.061-6.153-.06-7.184-.095-12.559-.779-19.137-3.557-3.832-.467-3.832-.467-7.625-.375l-3.79-.023c-3.82.424-6.223 1.613-9.585 3.398l-2-1c2.208-10.48 2.208-10.48 5.824-13.547C155.532 49.3 158.121 48.635 161 48l2.176-.513C186.794 41.935 222.537 36.69 244 51"/><path fill="#595858" d="m148 48 3 2c-.482 5.495-1.01 10.235-4 15-2.246 1.01-4.474 1.635-6.848 2.285C136.79 68.402 135.7 69.93 134 73c-2.383 5.671-3.064 10.746-3.125 16.875-.381 7.4-2.992 11.299-7.355 16.992C121 109 121 109 117.848 109.383c-2.742-.369-4.509-.943-6.848-2.383v-2l-1.687-.687C103.093 100.783 100.16 95.597 98 89c-1.15-5.332-1.55-10.73 0-16 2.875-2.187 2.875-2.187 6-4 3.343-3.702 4.677-7.708 5.875-12.5 1.721-5.355 4.066-8.195 9-10.812C128.526 41.792 138.996 43.153 148 48"/><path fill="#FDFEFE" d="M178 64c5.253 4.417 9.537 9.817 10.309 16.785.324 8.245-.758 13.925-6.309 20.215-2.513 2.077-5.045 3.633-8 5l-2.29 1.102c-6.596 2.186-15.97 2.216-22.335-.79-4.362-2.674-7.547-6.07-10.375-10.312-1.964-.577-1.964-.577-4.125-.687L131 95l.96-1.738 1.415-2.575 1.656-2.992c1.521-2.8 2.927-5.645 4.313-8.515l1.264-2.554a243 243 0 0 0 2.436-5.074c2.484-4.958 4.69-7.804 9.886-9.95C161.024 59.247 170.6 60.026 178 64"/><path fill="#38ABC7" d="M244 51a96 96 0 0 1 2.688 7.625l.681 2.14A615 615 0 0 1 249 66h-3v-2c-8.11-4.164-15.816-6.355-25-5-2.723 1.328-2.723 1.328-5.402 3-6.717 3.498-12.895 3.824-20.308 3.617-2.053-.055-4.1-.061-6.153-.06-7.184-.095-12.559-.779-19.137-3.557-3.832-.467-3.832-.467-7.625-.375l-3.79-.023c-3.82.424-6.223 1.613-9.585 3.398l-2-1c2.208-10.48 2.208-10.48 5.824-13.547C155.532 49.3 158.121 48.635 161 48l2.176-.513C186.794 41.935 222.537 36.69 244 51"/><path fill="#37ABC8" d="M183 342c3.88.366 3.88.366 6.188-1.437 5.008-2.783 10.418-3.06 16-1.938 4.155 1.269 6.885 3.1 9.812 6.375 2.02 4.58 2.27 7.97 1 12.813-2.52 4.015-5.254 6.276-9.79 7.78-2.907.535-5.692.539-8.648.532l-3.37.008A42.3 42.3 0 0 1 186 365c.134 4.08.134 4.08 1 8 6.452 4.916 14.47 2.956 22 2l1 5c-5.954 3.804-11.002 4.666-18 4-4.209-1.14-8.17-2.925-12-5l-2.75 1.938c-5.378 3.413-10.24 3.922-16.562 2.566-3.678-1.07-6.248-2.13-9.188-4.629-2.056-3.942-2.688-7.44-2.5-11.875 1.674-5.219 4.228-7.423 9-10 6.828-2.276 15.024-1.213 22 0l-.062-3.812-.036-2.145c-.818-2.39-.818-2.39-3.933-3.824-4.222-1.58-7.986-1.364-12.406-.906l-2.217.185A369 369 0 0 0 156 347c-.133-2.39-.133-2.39 0-5 7.764-6.394 18.833-4.473 27 0m6.094 7.785c-1.483 3.003-1.745 5.907-2.094 9.215 2.564.136 5.121.234 7.688.313l2.185.126c4.192.096 5.692-.103 9.143-2.763 2.283-2.54 2.283-2.54 2.047-5.801-.883-2.851-.883-2.851-2.563-4.75-6.757-3.04-11.77-2.02-16.406 3.66m-29.063 15.512c-2.356 2.625-2.356 2.625-2.281 6.328.96 3.644.96 3.644 4.438 5.375 3.993 1.048 5.936 1.348 9.812 0 4.949-3.712 6.022-7.13 7-13-1.976-1.976-5.563-1.32-8.25-1.375l-2.027-.113c-3.904-.07-5.574.373-8.692 2.785"/><path fill="#353434" d="m198.063 16.688 3.235.004c57.953.145 57.953.145 70.874 11.296 6.595 7.257 11.41 15.505 15.344 24.453 1.734 2.99 3.762 4.473 6.484 6.559 2.415 4.496 3.373 7.907 3 13l-4 1c-4.043-4.384-6.058-8.118-7.875-13.75-2.434-6.969-5.54-12.43-10.125-18.25l-1.613-2.465c-6.008-8.846-13.835-10.107-23.887-12.16-16.759-2.938-33.37-3.723-50.369-3.69-3.429.002-6.857-.021-10.285-.046-34.767-.384-34.767-.384-64.658 14.861C117.174 44.743 110.743 51.89 109 62c-1.732 4.094-3.478 7.225-7 10h-4c-.566-6.939 1.2-10.661 5.625-15.937C105 55 105 55 107 55l.75-2.61c3.819-10.358 13.128-22.112 22.578-27.788 20.323-8.95 46.01-7.99 67.735-7.914"/><path fill="#ABDBE7" d="M147 65c-9.507 20.62-9.507 20.62-15 29l3.25.125c4.856 1.133 5.143 2.768 7.75 6.875 8.094 6.228 16.045 6.93 26 6 3.641-1.269 6.722-3 10-5l3-1 1-2c1-2 1-2 4-3 1.911.23 3.822.466 5.727.742 3.754.426 7.5.337 11.273.258l1 3c1.967 1.15 1.967 1.15 4 2 1 1 1 1 1.063 4.063L210 109c-5.675 3.302-10.37 5.31-17 4-3.062-2-3.062-2-5-4-3.653 1.25-4.78 1.671-7 5-.39 1.99-.732 3.99-1 6l-1-4-3.2.438c-8.657 1.117-17.323 1.872-26.05 2.124l-2.667.155c-3.559.052-6.052.075-8.939-2.144-7.639-8.584-8.893-18.463-8.464-29.534.523-8.093 2.458-14.32 8.32-20.039 3.08-2.117 5.33-2.06 9-2"/><path fill="#333" d="m281 321 5 2 1 33 12-11c6-5 6-5 8.813-5.375C310 340 310 340 311 341c.46 2.176.46 2.176 0 5-1.867 2.355-4.094 4.241-6.375 6.188l-1.828 1.615q-1.68 1.484-3.377 2.948c-1.18 1.038-2.308 2.137-3.42 3.249l1.453 1.497c2.17 2.244 4.327 4.498 6.485 6.753l2.287 2.355 2.177 2.286 2.016 2.094c1.655 2.108 2.375 3.35 2.582 6.015l-2 3c-3.6-.284-5.526-.582-8.273-3.004l-2.102-2.558a163 163 0 0 0-11.094-11.844C288 365 288 365 287 363l-.06 1.712c-.095 2.555-.205 5.109-.315 7.663l-.094 2.695-.117 2.578-.095 2.38C286 382 286 382 284 384c-3.125-.375-3.125-.375-6-1-1.013-3.039-1.144-5.144-1.177-8.326l-.039-3.297-.022-3.56-.025-3.658q-.02-3.833-.032-7.664a1712 1712 0 0 0-.105-11.74q-.015-3.719-.026-7.439l-.053-3.554.009-3.307-.018-2.906c.623-3.254 1.997-4.452 4.488-6.549"/><path fill="#F3D1A2" d="M186 108a56.5 56.5 0 0 1 7 4c4.935.837 8.892.323 13.25-2.125 3.463-1.91 3.463-1.91 6.375-1.562 3.416 2.427 6.18 5.095 8.375 8.687.07 3.072-.533 4.288-2.187 6.813-2.582 1.69-4.79 1.265-7.813 1.187l.14 2.52.11 3.293.14 3.269C211 137 211 137 209.146 138.938 207 140 207 140 204.437 139.188L202 138c-3.185-.277-3.185-.277-6 2-2.5-.062-2.5-.062-5-1-3.421-3.775-3.271-7.373-3.105-12.207L188 125l-2.312.188C183 125 183 125 181.188 124c-1.907-3.211-1.959-6.437-1.188-10 2.438-2.937 2.438-2.937 5-5z"/><path fill="#EC952B" d="M294 243c-9.13 11.17-19.773 16.5-34 19-4.646.353-9.262.434-13.918.391-2.08-.016-4.158 0-6.238.02-9.292.014-18.882-.334-26.969-5.349-1.792-1.971-2.75-3.676-3.875-6.062l2.984-.044c36.814-.344 36.814-.344 72.844-7.186 3.182-.773 5.912-.913 9.172-.77"/><path fill="#EC942A" d="M106 243c4.83.483 9.453 1.297 14.188 2.375A760 760 0 0 0 128 247l2.028.416c19.688 3.855 39.99 3.327 59.972 3.584-2.455 4.542-4.6 7.09-9.47 8.936-7.72 2-15.057 2.53-23.02 2.455-2.008-.016-4.014 0-6.022.02-11.17-.034-20.978-1.685-30.925-6.849l-3.434-1.746c-5.046-2.929-8.39-5.626-11.129-10.816"/><path fill="#EE962D" d="M292 218v7c-9.976 3.39-19.89 5.668-30.312 7.25l-3.248.493c-12.764 1.847-25.315 2.396-38.19 2.32q-2.23-.008-4.46-.014-5.396-.017-10.79-.049l-1-9 2.177.016c26.853.17 53.138-.338 79.249-7.434C288 218 288 218 292 218M108 218c3.365.526 6.694 1.137 10.02 1.867 25.323 5.42 51.15 6.762 76.98 6.133l-1 9c-16.466.204-32.67.38-49-2l-3.676-.402c-7.683-.867-15.112-2.342-22.637-4.098l-2.807-.648-2.618-.633-2.345-.565C109 226 109 226 107 224c.375-3.125.375-3.125 1-6"/><path fill="#333" d="m244.188 320.938 3.292.027L250 321c.625 2.375.625 2.375 1 5-3.006 3.006-5.824 2.596-10 3-1.17 3.98-2.257 7.916-3 12h10v5c-3.215 1.607-6.436 1.057-10 1a2641.599 2641.599 0 0 1 .11 14.844q.016 2.526.04 5.052c.025 2.417.036 4.835.045 7.252l.032 2.29c0 1.855-.105 3.71-.227 5.562l-2 2c-4.556-.556-4.556-.556-6-2-.089-2.594-.115-5.16-.098-7.754l.005-2.35c.005-2.486.018-4.972.03-7.459q.008-2.522.014-5.044.017-6.197.049-12.393l-2.812.125C224 347 224 347 221 345l1-4h8l-.176-2.633c-.414-10.588-.414-10.588 2.488-14.117 3.993-3.343 6.828-3.367 11.875-3.312M104 326v15h10l1 4c-3 2-3 2-11 2l1 29 9 1 2 2c-.375 2.625-.375 2.625-1 5-2.061.109-4.124.186-6.187.25l-3.481.14c-4.16-.487-5.593-1.218-8.332-4.39-2.77-6.78-2.238-14.381-2.125-21.562l.027-3.346q.035-4.047.098-8.092l-7-1-1-3 1-2c2.322-.407 4.657-.744 7-1l.184-2.3.254-3.012c.08-.987.162-1.973.246-2.989C96 329 96 329 97 326c2-1 2-1 7 0"/><path fill="#D2E261" d="M330 114c1 1 1 1 1.255 3.65-.304 3.993-1.47 6.406-3.333 9.944l-.98 1.881a751 751 0 0 1-3.192 6.025l-2.184 4.158A1735 1735 0 0 1 303 174l-1.828-1.457c-2.422-1.72-4.258-2.138-7.172-2.543 1.394-4.599 3.29-8.737 5.563-12.953l1.054-1.982q1.685-3.16 3.383-6.315l2.319-4.334c2.218-4.143 4.448-8.28 6.681-12.416l1.746-3.24q2.084-3.855 4.192-7.697l1.193-2.199c2.91-5.245 3.98-6.374 9.869-4.864M74.375 112.875c7.266 3.114 10.8 15.675 13.875 22.438q1.285 2.805 2.574 5.608l1.713 3.735c2.897 6.315 5.89 12.583 8.923 18.834 2.54 5.294 2.54 5.294 2.54 7.51l-1.715.367-2.222.508-2.215.492c-2.055.463-2.055.463-2.848 2.633l-1.469-3.156c-3.395-7.27-6.833-14.504-10.469-21.656-3.635-7.161-6.939-14.456-10.18-21.803-.363-.816-.724-1.633-1.097-2.475l-.972-2.214c-.693-1.687-.693-1.687-1.813-2.696-.25-2.937-.25-2.937 0-6 3-2 3-2 5.375-2.125"/><path fill="#940303" d="m253 46 .688 3.188c4.156 16.23 12.72 30.93 21.187 45.25l1.081 1.843c2.02 3.344 4.157 6.085 7.044 8.719-1 3-1 3-3 4-3.187.625-3.187.625-7 0-2.805-2.69-4.905-5.739-7-9l-1.645-2.348c-1.706-3.34-1.951-6.175-2.293-9.902-.667-6.231-2.18-11.21-5.062-16.75l-1-3c-2.376-1.184-2.376-1.184-5-2-3-1-3-1-4.168-3.11l-1.02-2.64-1.042-2.61c-.804-2.756-1.126-4.79-.77-7.64 3.132-2.575 4.894-4 9-4"/><path fill="#333" d="M148 341v5l-1.828.516c-6.397 1.933-6.397 1.933-11.172 6.484-1.058 3.174-1.17 5.574-1.246 8.91l-.1 3.498q-.091 3.66-.172 7.32l-.103 3.495-.076 3.21C133 382 133 382 131 384c-3.062-.25-3.062-.25-6-1-1.626-3.251-1.184-6.829-1.203-10.402l-.017-2.526q-.015-2.647-.02-5.293c-.01-2.702-.041-5.403-.073-8.105l-.015-5.139-.038-2.453c.023-5.642.023-5.642 1.728-7.827C127 340 127 340 129.562 340.125 132 341 132 341 134 344l2.188-1.937c4.289-3.146 7.2-3.967 11.812-1.063"/><path fill="#940303" d="M143 47c3.375.547 5.082 1.055 8 3-.482 5.495-1.01 10.235-4 15-2.246 1.01-4.474 1.635-6.848 2.285C136.79 68.402 135.7 69.93 134 73c-2.383 5.671-3.064 10.746-3.125 16.875-.381 7.4-2.992 11.299-7.355 16.992C121 109 121 109 117.848 109.383c-2.742-.369-4.509-.943-6.848-2.383 1.622-3.567 3.777-6.574 6.063-9.75C127.753 82.066 137.299 64.702 143 47"/><path fill="#F5D1A2" d="M133.871 294.164c2.784 1.093 5.123 2.58 7.629 4.211l2.844 1.836A130 130 0 0 1 151 305l-1.652.848c-4.358 2.316-8.223 4.757-12.036 7.902-5.867 4.645-5.867 4.645-10.312 4.25-4.165-2.515-5.573-3.787-7.187-8.375.29-5.619 2.866-8.526 6.94-12.21 4.456-3.484 4.456-3.484 7.118-3.25"/><path fill="#D7EDF3" d="M249 65c4.274 1.62 7.463 3.096 10 7 4.028 9.128 6.231 20.307 3 30h-21l5-4c4.294-4.474 5.343-8.67 5.438-14.812-.22-6.193-1.058-12.152-2.438-18.188"/><path fill="#333" d="M259 340c3.125.375 3.125.375 6 1 1.241 3.724 1.143 7.184 1.133 11.063l.003 2.386q0 2.498-.006 4.993c-.005 2.548 0 5.096.007 7.644q0 2.426-.004 4.851l.006 2.311c-.014 3.183-.125 5.71-1.139 8.752-2.875.625-2.875.625-6 1-2.66-2.66-2.25-4.655-2.278-8.274l.012-2.601-.005-2.667q-.002-2.794.01-5.589c.011-2.857 0-5.715-.012-8.572q0-2.711.007-5.422l-.012-2.601c.048-6.044.048-6.044 2.278-8.274"/><path fill="#F4D1A2" d="M263.484 292.086c3.028 1.1 4.24 2.372 6.266 4.851l1.797 2.153c2.48 3.259 2.853 5.815 2.8 9.937C274 311 274 311 271.814 313.437 269 315 267.187 315.734 264 316c-1.992-1.187-1.992-1.187-3.875-3l-2.055-1.941L256 309l-2.07-2.027A369 369 0 0 1 249 302l2.063-1.625c1.592-1.287 3.17-2.598 4.652-4.012.883-.83.883-.83 1.785-1.675l1.656-1.614C261 292 261 292 263.484 292.086"/><path fill="#FAFDFD" d="M211 125c.108 1.936.186 3.874.25 5.813l.14 3.269C211 137 211 137 209.146 138.938 207 140 207 140 204.437 139.188L202 138c-3.185-.277-3.185-.277-6 2-2.5-.062-2.5-.062-5-1-3.421-3.775-3.271-7.373-3.105-12.207L188 125c8.38-3.506 14.633-3.554 23 0"/><path fill="#050504" d="M105 171c3 6.625 3 6.625 3 10l-3 2 1 5 3.313.188c3.687.812 3.687.812 5.624 3 1.239 3.277 1.666 5.346 1.063 8.812-2.25 2-2.25 2-5 3-2.25-.562-2.25-.562-4-2-.75-2.125-.75-2.125-1-4l-2.25-.125C101 196 101 196 98.625 193.438c-2.134-4.516-1.41-6.574-.625-11.438-.875-2.167-.875-2.167-2-4-.312-2.625-.312-2.625 0-5 3.435-2.29 4.985-2.178 9-2"/><path fill="#0A0806" d="M293 170c5.411-.36 5.411-.36 7.938 1.188C302 173 302 173 301.813 175.438 301 178 301 178 299.938 179.813c-1.205 2.384-1.205 2.384-.813 6.062.115 4.388-1.197 6.79-4.125 10.125-2.062.625-2.062.625-4 1-1.754 1.977-1.754 1.977-3 4-5.75-.75-5.75-.75-8-3 .318-3.924 1.384-7.046 4-10 2.751-.393 5.201-.18 8 0 1.243-1.041 1.243-1.041 1.313-3.312-.402-3.455-1.712-4.493-4.313-6.688z"/><path fill="#A9DAE7" d="M179 65h29l-6 11-1 5q-2.657-.466-5.312-.937l-2.989-.528C190 79 190 79 187 78c-1.133-1.742-1.133-1.742-2.125-3.875l-1.008-2.117C183 70 183 70 182 67l-3-1z"/><path fill="#D5ECF3" d="m188 78 13 3 .75 4.625c.925 4.733 2.386 7.556 5.25 11.375v2l3 1-3 1-1.176-1.496c-2.463-2.03-3.865-1.748-7.012-1.567-5.032.154-9.006-.486-13.812-1.937l.96-2.074c1.181-3.324 1.452-6.224 1.665-9.739z"/><path fill="#060606" d="M207.938 100.688C210 103 210 103 210.313 106.25L210 109c-5.712 3.323-10.336 5.254-17 4-3.062-1.687-3.062-1.687-5-4-.562-2.5-.562-2.5 0-5 5.055-6.805 12.848-7.385 19.938-3.312"/><path fill="#E6C5C5" d="M147 65c-10.478 22.767-10.478 22.767-16 31h-1c-.398-9.406-.62-18.742 5.438-26.5 3.987-3.89 6.082-4.59 11.562-4.5"/><path fill="#CCC" d="M216.09 75.45c1.91.55 1.91.55 4.472 3.175 1.652 3.877 1.893 5.438.438 9.375-2.187 2.438-2.187 2.438-5 4-3.63 0-5.42-.588-8.375-2.687C205.473 86.25 205.4 84.676 206 81c2.47-4.734 4.952-5.887 10.09-5.55"/><path fill="#CFCFCF" d="M153 78c2.438 1.563 2.438 1.563 4 4 .725 4.429.495 6.28-2.062 10-2.938 2-2.938 2-6.563 2.125C145 93 145 93 143 90.875c-1.298-3.732-.986-6.072 0-9.875 2.329-4.01 5.736-3.524 10-3"/><path fill="#F2CF9F" d="M117 175c2.985 3.293 3.408 5.536 3.375 9.938l.023 3.09c-.445 3.321-1.499 5.244-3.398 7.972-4-4.75-4-4.75-4-7l-3.375.125C106 189 106 189 104 187c.375-2.625.375-2.625 1-5l3-1v-2l9-1z"/><path fill="#CEC6A5" d="m281 175 1 2c2.24.603 4.486.956 6.773 1.34 2.554.757 3.61 1.565 5.227 3.66.313 2.563.313 2.563 0 5-2 2-2 2-5 2.188-3-.188-3-.188-5-1.188l-2 5c-2-2-2-2-2.23-5.187l.043-3.813.019-3.812C280 177 280 177 281 175"/><path fill="#D29494" d="M249 65c4.304 1.353 7.549 3.18 10 7 2.84 6.935 4.588 13.506 4 21-2.201-2.037-3.626-3.89-4.937-6.582l-1.024-2.076L256 82.188l-1.04-2.12a811 811 0 0 1-2.01-4.133 207 207 0 0 0-2.7-5.26C249 68 249 68 249 65"/><path fill="#950101" d="M288 55c4.6 1.816 6.306 4.625 8.285 8.926.952 2.76 1.004 5.185.715 8.074l-4 1c-4.913-5.56-7.357-9.317-7-17zM109 55c.39 6.501-.829 10.338-4.937 15.375C102 72 102 72 98 72c-.571-6.997 1.283-10.49 5.5-15.937C105 55 105 55 109 55"/><path fill="#020201" d="M293 170c5.411-.36 5.411-.36 7.938 1.188C302 173 302 173 302 175.188c-1.416 3.982-3.65 7.318-6 10.812l-1.812-2.312c-2.226-2.828-2.226-2.828-5.188-5.688z"/><path fill="#333" d="M261 320.813c3 .187 3 .187 5 1.187 1.05 2.99 1.275 4.4-.062 7.313-1.938 1.687-1.938 1.687-5 2.062C258 331 258 331 256 329c-.25-3-.25-3 0-6 2-2 2-2 5-2.187"/><path fill="#9B9B9B" d="M213.938 75.625c3.746.088 3.746.088 6.062 2.188C221 80 221 80 221 83h-14c1.369-6.845 1.369-6.845 6.938-7.375"/><path fill="#D19191" d="m147 65-5 10h-9c1.353-4.427 3.233-6.363 7-9 2-1 2-1 7-1"/><path fill="#EECC9E" d="M99 184c2.792 2.408 3.897 4.761 5.188 8.188l1.042 2.73L106 197c-3.798-.537-4.747-.72-7.437-3.687C97 190 97 190 97.75 186.625z"/><path fill="#41A9BE" d="M117 175c2.985 3.293 3.408 5.536 3.375 9.938l.023 3.09c-.445 3.321-1.499 5.244-3.398 7.972-.825-2.834-1.08-5.17-.879-8.11l.147-2.285.17-2.355.158-2.402q.195-2.925.404-5.848"/><path fill="#ECC99C" d="m297 184 2 1c.42 3.562-.04 5.075-1.75 8.313L295 196h-4c1.319-4.615 3.214-8.099 6-12"/><path fill="#D7EDF2" d="M136 86h1l2 9h-8z"/><path fill="#E1BBBB" d="M257 84a100 100 0 0 1 5 0c1 1 1 1 1.098 2.848L263 93c-2.969-2.545-4.362-5.49-6-9"/><path fill="#F8E9D4" d="M210 108c4.419 1.35 6.343 3.261 9 7-5.506-.49-5.506-.49-7.875-2.937C210 110 210 110 210 108"/><path fill="#E5C397" d="M102 189c2.154 2.622 3.4 4.644 4 8l-5-1c0-4 0-4 1-7"/><path fill="#B9DAE4" d="M251 72c3.172 3.625 4.429 7.512 6 12h-4c-1.138-4.266-2-7.565-2-12"/><path fill="#E4E4E4" d="M221 82c1 3 1 3 .063 5.188L220 89l-4-1v-4h5z"/><path fill="#F5D1A1" d="m297 184 2 1v5l-3 1c-.625-1.812-.625-1.812-1-4z"/><path fill="#8E8F89" d="M294 168c6.75.75 6.75.75 9 3l-1 3-1.187-1.437c-2.221-1.915-3.947-2.176-6.813-2.563z"/><path fill="#92928B" d="M104 169v2l-1.715.367-2.222.508-2.215.492c-2.055.463-2.055.463-2.848 2.633.313-1.875.313-1.875 1-4 3.228-2.152 4.284-2.2 8-2"/><path fill="#F5E9D6" d="M186 108c0 3 0 3-2.5 5.688L181 116l-1-2z"/></svg>